<svg width="254" height="258" viewBox="0 0 254 258" fill="none" xmlns="http://www.w3.org/2000/svg">
<circle cx="126.931" cy="127.632" r="100.516" fill="#FF6B2B"/>
<ellipse cx="126.714" cy="127.415" rx="84.1529" ry="84.8541" fill="white"/>
<rect x="119.379" width="15.5711" height="56.0561" fill="#FF6B2B"/>
<rect x="119.379" y="201.387" width="15.5711" height="56.0561" fill="#FF6B2B"/>
<rect x="253.291" y="119.379" width="15.5711" height="56.0561" transform="rotate(90 253.291 119.379)" fill="#FF6B2B"/>
<rect x="56.0562" y="119.379" width="15.5711" height="56.0561" transform="rotate(90 56.0562 119.379)" fill="#FF6B2B"/>
<path d="M86.4387 97.9116C85.6403 97.5617 85.6407 96.429 86.4393 96.0796L127.691 78.0311C127.947 77.9192 128.238 77.9193 128.494 78.0315L168.932 95.7763C169.726 96.1248 169.731 97.2503 168.939 97.6047L128.182 115.849C127.924 115.965 127.63 115.966 127.372 115.853L86.4387 97.9116Z" fill="#FF6B2B"/>
<path d="M131.005 122.729C131.005 122.332 131.24 121.973 131.603 121.813L175.049 102.71C175.71 102.42 176.452 102.904 176.452 103.626V157.306C176.452 157.703 176.216 158.063 175.852 158.222L132.406 177.225C131.745 177.514 131.005 177.03 131.005 176.309V122.729Z" fill="#FF6B2B"/>
<path d="M124.34 122.729C124.34 122.332 124.106 121.973 123.743 121.813L80.2963 102.71C79.6354 102.42 78.8938 102.904 78.8938 103.626V157.306C78.8938 157.703 79.129 158.063 79.493 158.222L122.939 177.225C123.6 177.514 124.34 177.03 124.34 176.309V122.729Z" fill="#FF6B2B"/>
</svg>
