<svg width="1691" height="332" viewBox="0 0 1691 332" fill="none" xmlns="http://www.w3.org/2000/svg">
<path d="M498.632 117.12C516.947 117.12 531.453 122.469 542.152 133.168C552.851 143.685 558.2 159.552 558.2 180.768V264H524.2V185.12C524.2 172.427 521.389 162.907 515.768 156.56C510.147 150.032 502.077 146.768 491.56 146.768C480.136 146.768 470.979 150.576 464.088 158.192C457.197 165.627 453.752 176.325 453.752 190.288V264H419.752V185.12C419.752 172.427 416.941 162.907 411.32 156.56C405.699 150.032 397.629 146.768 387.112 146.768C375.507 146.768 366.259 150.485 359.368 157.92C352.659 165.355 349.304 176.144 349.304 190.288V264H315.304V118.752H347.672V137.248C353.112 130.72 359.912 125.733 368.072 122.288C376.232 118.843 385.299 117.12 395.272 117.12C406.152 117.12 415.763 119.205 424.104 123.376C432.627 127.365 439.336 133.349 444.232 141.328C450.216 133.712 457.923 127.819 467.352 123.648C476.781 119.296 487.208 117.12 498.632 117.12ZM668.256 265.904C653.568 265.904 640.331 262.731 628.544 256.384C616.757 250.037 607.509 241.243 600.8 230C594.272 218.576 591.008 205.701 591.008 191.376C591.008 177.051 594.272 164.267 600.8 153.024C607.509 141.781 616.757 132.987 628.544 126.64C640.331 120.293 653.568 117.12 668.256 117.12C683.125 117.12 696.453 120.293 708.24 126.64C720.027 132.987 729.184 141.781 735.712 153.024C742.421 164.267 745.776 177.051 745.776 191.376C745.776 205.701 742.421 218.576 735.712 230C729.184 241.243 720.027 250.037 708.24 256.384C696.453 262.731 683.125 265.904 668.256 265.904ZM668.256 236.8C680.768 236.8 691.104 232.629 699.264 224.288C707.424 215.947 711.504 204.976 711.504 191.376C711.504 177.776 707.424 166.805 699.264 158.464C691.104 150.123 680.768 145.952 668.256 145.952C655.744 145.952 645.408 150.123 637.248 158.464C629.269 166.805 625.28 177.776 625.28 191.376C625.28 204.976 629.269 215.947 637.248 224.288C645.408 232.629 655.744 236.8 668.256 236.8ZM918.913 118.752V264H886.545V245.504C881.105 252.032 874.305 257.109 866.145 260.736C857.985 264.181 849.19 265.904 839.761 265.904C820.358 265.904 805.035 260.555 793.793 249.856C782.731 238.976 777.2 222.928 777.2 201.712V118.752H811.2V197.088C811.2 210.144 814.102 219.936 819.905 226.464C825.888 232.811 834.32 235.984 845.2 235.984C857.35 235.984 866.961 232.267 874.033 224.832C881.286 217.216 884.913 206.336 884.913 192.192V118.752H918.913ZM995.797 139.968C1005.59 124.736 1022.82 117.12 1047.48 117.12V149.488C1044.58 148.944 1041.95 148.672 1039.59 148.672C1026.35 148.672 1016.02 152.571 1008.58 160.368C1001.15 167.984 997.429 179.045 997.429 193.552V264H963.429V118.752H995.797V139.968ZM1216.98 118.752V264H1184.61V245.232C1178.99 252.123 1172 257.291 1163.66 260.736C1155.5 264.181 1146.44 265.904 1136.46 265.904C1122.32 265.904 1109.63 262.821 1098.38 256.656C1087.32 250.491 1078.62 241.787 1072.27 230.544C1066.11 219.301 1063.02 206.245 1063.02 191.376C1063.02 176.507 1066.11 163.541 1072.27 152.48C1078.62 141.237 1087.32 132.533 1098.38 126.368C1109.63 120.203 1122.32 117.12 1136.46 117.12C1145.89 117.12 1154.51 118.752 1162.3 122.016C1170.28 125.28 1177.17 130.085 1182.98 136.432V118.752H1216.98ZM1140.27 236.8C1152.78 236.8 1163.12 232.629 1171.28 224.288C1179.44 215.947 1183.52 204.976 1183.52 191.376C1183.52 177.776 1179.44 166.805 1171.28 158.464C1163.12 150.123 1152.78 145.952 1140.27 145.952C1127.76 145.952 1117.42 150.123 1109.26 158.464C1101.28 166.805 1097.3 177.776 1097.3 191.376C1097.3 204.976 1101.28 215.947 1109.26 224.288C1117.42 232.629 1127.76 236.8 1140.27 236.8ZM1403.44 118.752V316.768H1369.44V246.32C1358.02 259.376 1342.52 265.904 1322.93 265.904C1308.79 265.904 1296.1 262.821 1284.85 256.656C1273.79 250.491 1265.09 241.787 1258.74 230.544C1252.58 219.301 1249.49 206.245 1249.49 191.376C1249.49 176.688 1252.67 163.723 1259.01 152.48C1265.36 141.237 1274.06 132.533 1285.12 126.368C1296.19 120.203 1308.79 117.12 1322.93 117.12C1332.91 117.12 1341.97 118.843 1350.13 122.288C1358.47 125.733 1365.46 130.901 1371.08 137.792V118.752H1403.44ZM1326.74 236.8C1339.25 236.8 1349.59 232.629 1357.75 224.288C1365.91 215.947 1369.99 204.976 1369.99 191.376C1369.99 177.776 1365.91 166.805 1357.75 158.464C1349.59 150.123 1339.25 145.952 1326.74 145.952C1314.23 145.952 1303.89 150.123 1295.73 158.464C1287.75 166.805 1283.76 177.776 1283.76 191.376C1283.76 204.976 1287.75 215.947 1295.73 224.288C1303.89 232.629 1314.23 236.8 1326.74 236.8ZM1447.93 118.752H1481.93V264H1447.93V118.752ZM1465.07 94.816C1458.9 94.816 1453.73 92.912 1449.56 89.104C1445.39 85.1147 1443.31 80.2187 1443.31 74.416C1443.31 68.6133 1445.39 63.808 1449.56 60C1453.73 56.0107 1458.9 54.016 1465.07 54.016C1471.23 54.016 1476.4 55.92 1480.57 59.728C1484.74 63.3547 1486.83 67.9787 1486.83 73.6C1486.83 79.584 1484.74 84.6613 1480.57 88.832C1476.58 92.8213 1471.41 94.816 1465.07 94.816ZM1607.07 117.12C1621.21 117.12 1633.81 120.203 1644.87 126.368C1656.12 132.533 1664.91 141.237 1671.26 152.48C1677.6 163.723 1680.78 176.688 1680.78 191.376C1680.78 206.064 1677.6 219.12 1671.26 230.544C1664.91 241.787 1656.12 250.491 1644.87 256.656C1633.81 262.821 1621.21 265.904 1607.07 265.904C1597.09 265.904 1587.94 264.181 1579.59 260.736C1571.43 257.291 1564.54 252.123 1558.92 245.232V264H1526.55V62.176H1560.55V136.432C1566.36 130.085 1573.16 125.28 1580.95 122.016C1588.93 118.752 1597.64 117.12 1607.07 117.12ZM1603.26 236.8C1615.77 236.8 1626.02 232.629 1633.99 224.288C1642.15 215.947 1646.23 204.976 1646.23 191.376C1646.23 177.776 1642.15 166.805 1633.99 158.464C1626.02 150.123 1615.77 145.952 1603.26 145.952C1595.1 145.952 1587.75 147.856 1581.23 151.664C1574.7 155.291 1569.53 160.549 1565.72 167.44C1561.91 174.331 1560.01 182.309 1560.01 191.376C1560.01 200.443 1561.91 208.421 1565.72 215.312C1569.53 222.203 1574.7 227.552 1581.23 231.36C1587.75 234.987 1595.1 236.8 1603.26 236.8Z" fill="black"/>
<circle cx="126.931" cy="189.189" r="108.016" fill="white" stroke="#FF6B2B" stroke-width="15"/>
<ellipse cx="126.714" cy="188.972" rx="84.1529" ry="84.8541" fill="#FF6B2B"/>
<rect x="119.379" y="61.5571" width="15.5711" height="56.0561" fill="#FF6B2B"/>
<rect x="119.379" y="262.944" width="15.5711" height="56.0561" fill="#FF6B2B"/>
<rect x="253.291" y="180.937" width="15.5711" height="56.0561" transform="rotate(90 253.291 180.937)" fill="#FF6B2B"/>
<rect x="56.0562" y="180.937" width="15.5711" height="56.0561" transform="rotate(90 56.0562 180.937)" fill="#FF6B2B"/>
<path d="M86.4387 159.469C85.6403 159.119 85.6407 157.986 86.4393 157.637L127.691 139.588C127.947 139.476 128.238 139.476 128.494 139.589L168.932 157.333C169.726 157.682 169.731 158.807 168.939 159.162L128.182 177.407C127.924 177.522 127.63 177.523 127.372 177.41L86.4387 159.469Z" fill="white"/>
<path d="M131.005 184.286C131.005 183.889 131.24 183.53 131.603 183.37L175.049 164.268C175.71 163.977 176.452 164.461 176.452 165.183V218.863C176.452 219.26 176.216 219.62 175.852 219.779L132.406 238.782C131.745 239.071 131.005 238.587 131.005 237.866V184.286Z" fill="white"/>
<path d="M124.34 184.286C124.34 183.889 124.106 183.53 123.743 183.37L80.2963 164.268C79.6354 163.977 78.8938 164.461 78.8938 165.183V218.863C78.8938 219.26 79.129 219.62 79.493 219.779L122.939 238.782C123.6 239.071 124.34 238.587 124.34 237.866V184.286Z" fill="white"/>
</svg>
